<svg width="20" height="20" viewBox="0 0 20 20" fill="none" xmlns="http://www.w3.org/2000/svg">
<path d="M15.5914 6.84165C15.514 6.76355 15.4218 6.70155 15.3202 6.65924C15.2187 6.61694 15.1098 6.59515 14.9998 6.59515C14.8898 6.59515 14.7808 6.61694 14.6793 6.65924C14.5777 6.70155 14.4856 6.76355 14.4081 6.84165L10.5914 10.6583C10.514 10.7364 10.4218 10.7984 10.3202 10.8407C10.2187 10.883 10.1098 10.9048 9.99977 10.9048C9.88976 10.9048 9.78083 10.883 9.67929 10.8407C9.57774 10.7984 9.48557 10.7364 9.4081 10.6583L5.59143 6.84165C5.51396 6.76355 5.4218 6.70155 5.32025 6.65924C5.2187 6.61694 5.10978 6.59515 4.99977 6.59515C4.88976 6.59515 4.78083 6.61694 4.67928 6.65924C4.57774 6.70155 4.48557 6.76355 4.4081 6.84165C4.25289 6.99779 4.16577 7.209 4.16577 7.42915C4.16577 7.6493 4.25289 7.86051 4.4081 8.01665L8.2331 11.8416C8.70185 12.3098 9.33726 12.5728 9.99977 12.5728C10.6623 12.5728 11.2977 12.3098 11.7664 11.8416L15.5914 8.01665C15.7466 7.86051 15.8338 7.6493 15.8338 7.42915C15.8338 7.209 15.7466 6.99779 15.5914 6.84165Z" fill="white"/>
</svg>
