<svg width="24" height="24" viewBox="0 0 24 24" fill="none" xmlns="http://www.w3.org/2000/svg">
<g clip-path="url(#clip0_3_323)">
<path d="M17.0001 -7.62939e-06H7.00012C5.67453 0.00158023 4.40368 0.528874 3.46634 1.46621C2.529 2.40355 2.00171 3.6744 2.00012 4.99999V20C2.00012 21.0609 2.42155 22.0783 3.17169 22.8284C3.92184 23.5786 4.93926 24 6.00012 24H17.0001C18.3257 23.9984 19.5966 23.4711 20.5339 22.5338C21.4712 21.5964 21.9985 20.3256 22.0001 19V4.99999C21.9985 3.6744 21.4712 2.40355 20.5339 1.46621C19.5966 0.528874 18.3257 0.00158023 17.0001 -7.62939e-06V-7.62939e-06ZM20.0001 4.99999V16H8.00012V1.99999H17.0001C17.7958 1.99999 18.5588 2.31606 19.1214 2.87867C19.6841 3.44128 20.0001 4.20434 20.0001 4.99999ZM6.00012 2.17199V16C5.29775 15.9994 4.60773 16.1847 4.00012 16.537V4.99999C4.00021 4.37968 4.19258 3.77465 4.55076 3.26819C4.90893 2.76174 5.41529 2.37876 6.00012 2.17199ZM17.0001 22H6.00012C5.46969 22 4.96098 21.7893 4.58591 21.4142C4.21084 21.0391 4.00012 20.5304 4.00012 20C4.00012 19.4696 4.21084 18.9609 4.58591 18.5858C4.96098 18.2107 5.46969 18 6.00012 18H20.0001V19C20.0001 19.7956 19.6841 20.5587 19.1214 21.1213C18.5588 21.6839 17.7958 22 17.0001 22Z" fill="white" fill-opacity="0.8"/>
</g>
<defs>
<clipPath id="clip0_3_323">
<rect width="24" height="24" fill="white"/>
</clipPath>
</defs>
</svg>
