<svg width="12" height="19" viewBox="0 0 12 19" fill="none" xmlns="http://www.w3.org/2000/svg">
<path d="M4.39998 18.37V16H6.80998V18.37H4.39998ZM4.39998 2.37V3.57628e-06H6.80998V2.37H4.39998ZM5.65998 16.68C4.64665 16.68 3.73998 16.4933 2.93998 16.12C2.13998 15.7467 1.48331 15.22 0.969981 14.54C0.463314 13.86 0.139981 13.0533 -1.94609e-05 12.12L2.37998 11.74C2.56665 12.56 2.96665 13.2133 3.57998 13.7C4.19998 14.18 4.93998 14.42 5.79998 14.42C6.62665 14.42 7.30665 14.2267 7.83998 13.84C8.37331 13.4467 8.63998 12.95 8.63998 12.35C8.63998 11.93 8.51331 11.59 8.25998 11.33C8.00665 11.0633 7.59998 10.8433 7.03998 10.67L3.56998 9.59C1.54998 8.96334 0.539981 7.73667 0.539981 5.91C0.539981 5.05667 0.743314 4.31334 1.14998 3.68C1.56331 3.04 2.14331 2.55 2.88998 2.21C3.63665 1.86334 4.51665 1.69334 5.52998 1.7C6.46998 1.70667 7.30665 1.87667 8.03998 2.21C8.77998 2.54334 9.39331 3.02334 9.87998 3.65C10.3733 4.27667 10.7233 5.03 10.93 5.91L8.45998 6.36C8.36665 5.88667 8.18331 5.47 7.90998 5.11C7.63665 4.75 7.29331 4.47 6.87998 4.27C6.46665 4.07 6.00665 3.96334 5.49998 3.95C5.01331 3.94334 4.57665 4.02 4.18998 4.18C3.80331 4.33334 3.49665 4.55334 3.26998 4.84C3.04331 5.12 2.92998 5.43667 2.92998 5.79C2.92998 6.18334 3.08665 6.52 3.39998 6.8C3.71998 7.08 4.22331 7.32 4.90998 7.52L7.49998 8.27C8.74665 8.63 9.64331 9.12 10.19 9.74C10.7433 10.3533 11.02 11.17 11.02 12.19C11.02 13.0833 10.7966 13.8667 10.35 14.54C9.90331 15.2133 9.27665 15.74 8.46998 16.12C7.66331 16.4933 6.72665 16.68 5.65998 16.68Z" fill="white"/>
</svg>
