<svg width="24" height="24" viewBox="0 0 24 24" fill="none" xmlns="http://www.w3.org/2000/svg">
<g clip-path="url(#clip0_139_831)">
<path d="M19.4998 9H18.9998V7C18.9998 6.73478 18.8945 6.48043 18.7069 6.29289C18.5194 6.10535 18.265 6 17.9998 6C18.0125 5.29068 17.8315 4.59132 17.4763 3.97724C17.1211 3.36315 16.6051 2.85759 15.9838 2.515C15.2656 2.11522 14.4435 1.94099 13.6248 2.015C13.5232 2.0276 13.4201 2.01369 13.3255 1.97461C13.2308 1.93553 13.1479 1.87262 13.0848 1.792C12.6496 1.2218 12.0846 0.763684 11.4367 0.455685C10.7889 0.147685 10.0769 -0.00130504 9.35995 0.0210883C8.64297 0.0434817 7.94168 0.236612 7.31432 0.58444C6.68697 0.932268 6.15165 1.42475 5.75283 2.021C4.73838 2.08208 3.78539 2.52768 3.08806 3.267C2.39074 4.00631 2.00156 4.9837 1.99983 6C1.73462 6 1.48026 6.10535 1.29273 6.29289C1.10519 6.48043 0.999832 6.73478 0.999832 7V19C1.00142 20.3256 1.52871 21.5964 2.46605 22.5338C3.40339 23.4711 4.67424 23.9984 5.99983 24H13.9998C15.3254 23.9984 16.5963 23.4711 17.5336 22.5338C18.471 21.5964 18.9982 20.3256 18.9998 19H19.4998C20.4281 19 21.3183 18.6312 21.9747 17.9749C22.6311 17.3185 22.9998 16.4283 22.9998 15.5V12.5C22.9998 11.5717 22.6311 10.6815 21.9747 10.0251C21.3183 9.36875 20.4281 9 19.4998 9ZM5.99983 4C6.05734 4.00187 6.11457 4.0089 6.17083 4.021C6.38634 4.05604 6.60739 4.01958 6.80024 3.9172C6.99308 3.81482 7.14712 3.65214 7.23883 3.454C7.42166 3.06585 7.70131 2.7313 8.05087 2.48251C8.40043 2.23373 8.80813 2.0791 9.23475 2.0335C9.66137 1.98789 10.0925 2.05285 10.4868 2.22212C10.881 2.39139 11.2251 2.65927 11.4858 3C11.7538 3.35596 12.1096 3.63632 12.5183 3.81369C12.927 3.99107 13.3748 4.0594 13.8178 4.012C14.245 3.97835 14.6725 4.0727 15.0458 4.283C15.3434 4.45824 15.5887 4.70981 15.7565 5.01168C15.9242 5.31355 16.0082 5.65476 15.9998 6H11.9998C11.2042 6 10.4411 6.31607 9.87851 6.87868C9.3159 7.44128 8.99983 8.20435 8.99983 9V12C8.99983 12.2652 8.89447 12.5196 8.70694 12.7071C8.5194 12.8946 8.26505 13 7.99983 13C7.73462 13 7.48026 12.8946 7.29273 12.7071C7.10519 12.5196 6.99983 12.2652 6.99983 12V9C6.99983 8.20435 6.68376 7.44128 6.12115 6.87868C5.55854 6.31607 4.79548 6 3.99983 6C3.99983 5.46956 4.21055 4.96086 4.58562 4.58578C4.96069 4.21071 5.4694 4 5.99983 4ZM16.9998 19C16.9998 19.7956 16.6838 20.5587 16.1212 21.1213C15.5585 21.6839 14.7955 22 13.9998 22H5.99983C5.20418 22 4.44112 21.6839 3.87851 21.1213C3.3159 20.5587 2.99983 19.7956 2.99983 19V8H3.99983C4.26505 8 4.5194 8.10535 4.70694 8.29289C4.89448 8.48043 4.99983 8.73478 4.99983 9V12C4.99983 12.7956 5.3159 13.5587 5.87851 14.1213C6.44112 14.6839 7.20418 15 7.99983 15C8.79548 15 9.55854 14.6839 10.1212 14.1213C10.6838 13.5587 10.9998 12.7956 10.9998 12V9C10.9998 8.73478 11.1052 8.48043 11.2927 8.29289C11.4803 8.10535 11.7346 8 11.9998 8H16.9998V19ZM20.9998 15.5C20.9998 15.8978 20.8418 16.2794 20.5605 16.5607C20.2792 16.842 19.8977 17 19.4998 17H18.9998V11H19.4998C19.8977 11 20.2792 11.158 20.5605 11.4393C20.8418 11.7206 20.9998 12.1022 20.9998 12.5V15.5Z" fill="white" fill-opacity="0.8"/>
</g>
<defs>
<clipPath id="clip0_139_831">
<rect width="24" height="24" fill="white"/>
</clipPath>
</defs>
</svg>
