<svg width="24" height="24" viewBox="0 0 24 24" fill="none" xmlns="http://www.w3.org/2000/svg">
<g clip-path="url(#clip0_139_382)">
<path d="M23.9998 11.5C23.9993 10.8104 23.795 10.1363 23.4127 9.56237C23.0304 8.98843 22.487 8.54023 21.8508 8.27403C21.4448 5.95639 20.2346 3.85614 18.433 2.3427C16.6313 0.829261 14.3538 -0.000427246 12.0008 -0.000427246C9.6479 -0.000427246 7.37032 0.829261 5.5687 2.3427C3.76709 3.85614 2.55684 5.95639 2.15083 8.27403C1.42484 8.57946 0.823082 9.12085 0.442879 9.81063C0.0626747 10.5004 -0.0737523 11.2983 0.0556583 12.0752C0.185069 12.8521 0.572751 13.5627 1.15602 14.092C1.73928 14.6213 2.48403 14.9384 3.26983 14.992C3.78632 16.0881 4.48679 17.0875 5.34083 17.947C4.08942 19.3134 3.29522 21.0361 3.06883 22.875C3.05245 23.0054 3.0619 23.1377 3.09666 23.2644C3.13142 23.391 3.1908 23.5096 3.2714 23.6134C3.35201 23.7171 3.45227 23.8039 3.56644 23.8689C3.68062 23.9339 3.80648 23.9757 3.93683 23.992C3.97798 23.997 4.01938 23.9997 4.06083 24C4.3042 23.9998 4.53911 23.9107 4.72155 23.7496C4.90398 23.5886 5.02141 23.3665 5.05183 23.125C5.23313 21.6752 5.86844 20.3199 6.86683 19.253C8.35597 20.3522 10.1493 20.9626 11.9998 21C13.8449 20.9623 15.633 20.3545 17.1188 19.26C18.1129 20.325 18.7456 21.6765 18.9268 23.122C18.957 23.3637 19.0744 23.586 19.2568 23.7473C19.4393 23.9086 19.6743 23.9977 19.9178 23.998C19.9596 23.9978 20.0014 23.9952 20.0428 23.99C20.3059 23.9571 20.5451 23.821 20.7079 23.6117C20.8706 23.4025 20.9436 23.1371 20.9108 22.874C20.686 21.0397 19.8958 19.3209 18.6498 17.956C19.5086 17.0939 20.2128 16.0907 20.7318 14.99C21.6176 14.9312 22.4479 14.538 23.0546 13.89C23.6614 13.242 23.9992 12.3877 23.9998 11.5ZM20.2478 12.973C20.0146 12.9303 19.7737 12.9724 19.5689 13.0918C19.364 13.2112 19.2086 13.4 19.1308 13.624C18.2148 16.222 15.1298 19 11.9998 19C8.86983 19 5.78483 16.22 4.86883 13.622C4.79087 13.3981 4.63546 13.2095 4.43063 13.0901C4.22581 12.9707 3.98506 12.9285 3.75183 12.971C3.66873 12.9873 3.58447 12.997 3.49983 13C3.12862 12.9956 2.77224 12.8537 2.49962 12.6017C2.22699 12.3497 2.0575 12.0056 2.02391 11.6359C1.99032 11.2661 2.09503 10.8971 2.31778 10.6001C2.54053 10.3031 2.8655 10.0993 3.22983 10.028C3.44245 9.98949 3.63686 9.88312 3.78396 9.72484C3.93106 9.56656 4.02294 9.36489 4.04583 9.15003C4.17939 7.87134 4.62064 6.64402 5.33186 5.57301C6.04307 4.50201 7.0031 3.61918 8.12983 3.00003C7.96609 3.63613 7.95855 4.30238 8.10783 4.94203C8.31114 5.78792 8.78469 6.54447 9.4567 7.097C10.1287 7.64952 10.9625 7.96789 11.8318 8.00384C12.701 8.0398 13.5583 7.79138 14.2736 7.29624C14.9889 6.8011 15.5234 6.08625 15.7958 5.26003C15.8403 5.11326 15.8495 4.95809 15.8228 4.80708C15.7962 4.65607 15.7343 4.51346 15.6423 4.39078C15.5503 4.2681 15.4307 4.16881 15.2932 4.10092C15.1557 4.03304 15.0042 3.99848 14.8508 4.00003H14.6998C14.5159 4.00606 14.3387 4.07045 14.1938 4.18389C14.0489 4.29733 13.9438 4.45393 13.8938 4.63103C13.7776 4.98064 13.567 5.29135 13.2854 5.52888C13.0038 5.76641 12.662 5.92153 12.2978 5.97712C11.9336 6.03272 11.5611 5.98663 11.2214 5.84394C10.8817 5.70126 10.5881 5.46752 10.3728 5.16851C10.1576 4.8695 10.0291 4.51684 10.0016 4.14944C9.97405 3.78204 10.0485 3.41418 10.2168 3.08644C10.3851 2.75869 10.6407 2.4838 10.9553 2.2921C11.2699 2.10039 11.6314 1.99932 11.9998 2.00003C13.9757 1.9953 15.883 2.72393 17.3524 4.04482C18.8218 5.3657 19.7488 7.18486 19.9538 9.15003C19.9767 9.36489 20.0686 9.56656 20.2157 9.72484C20.3628 9.88312 20.5572 9.98949 20.7698 10.028C21.1342 10.0993 21.4591 10.3031 21.6819 10.6001C21.9046 10.8971 22.0093 11.2661 21.9758 11.6359C21.9422 12.0056 21.7727 12.3497 21.5 12.6017C21.2274 12.8537 20.871 12.9956 20.4998 13C20.4153 12.9977 20.331 12.9887 20.2478 12.973Z" fill="white" fill-opacity="0.8"/>
<path d="M9.50015 13.0001C10.3286 13.0001 11.0002 12.3285 11.0002 11.5001C11.0002 10.6716 10.3286 10.0001 9.50015 10.0001C8.67173 10.0001 8.00015 10.6716 8.00015 11.5001C8.00015 12.3285 8.67173 13.0001 9.50015 13.0001Z" fill="white" fill-opacity="0.8"/>
<path d="M14.4998 13.0001C15.3283 13.0001 15.9998 12.3285 15.9998 11.5001C15.9998 10.6716 15.3283 10.0001 14.4998 10.0001C13.6714 10.0001 12.9998 10.6716 12.9998 11.5001C12.9998 12.3285 13.6714 13.0001 14.4998 13.0001Z" fill="white" fill-opacity="0.8"/>
</g>
<defs>
<clipPath id="clip0_139_382">
<rect width="24" height="24" fill="white"/>
</clipPath>
</defs>
</svg>
