<svg width="24" height="24" viewBox="0 0 24 24" fill="none" xmlns="http://www.w3.org/2000/svg">
<g clip-path="url(#clip0_139_215)">
<path d="M17.9942 2.2861C16.7736 1.19564 15.2788 0.458685 13.6705 0.154533C12.0623 -0.149619 10.4016 -0.00944811 8.86706 0.559961C7.33256 1.12937 5.98238 2.10646 4.96184 3.38607C3.94129 4.66569 3.28902 6.19938 3.07521 7.8221C2.88319 9.24495 3.03676 10.6931 3.52293 12.044C4.00909 13.395 4.81355 14.6089 5.86821 15.5831C6.52041 16.155 7.04669 16.8562 7.41369 17.6422C7.78069 18.4282 7.98042 19.2819 8.00021 20.1491V20.3101C8.00127 21.2884 8.39037 22.2264 9.08215 22.9182C9.77393 23.6099 10.7119 23.999 11.6902 24.0001H12.3102C13.2885 23.999 14.2265 23.6099 14.9183 22.9182C15.61 22.2264 15.9991 21.2884 16.0002 20.3101V19.7611C16.0152 18.9946 16.1956 18.2403 16.529 17.5499C16.8625 16.8596 17.3411 16.2494 17.9322 15.7611C18.8908 14.9215 19.66 13.8879 20.189 12.7286C20.7179 11.5693 20.9945 10.3108 21.0004 9.03657C21.0062 7.76232 20.7412 6.50137 20.223 5.33726C19.7047 4.17314 18.945 3.13244 17.9942 2.2841V2.2861ZM12.3102 22.0001H11.6902C11.2422 21.9996 10.8126 21.8213 10.4958 21.5045C10.179 21.1877 10.0007 20.7582 10.0002 20.3101C10.0002 20.3101 9.99321 20.0501 9.99221 20.0001H14.0002V20.3101C13.9997 20.7582 13.8215 21.1877 13.5046 21.5045C13.1878 21.8213 12.7583 21.9996 12.3102 22.0001ZM16.6102 14.2591C15.4716 15.2466 14.6494 16.5478 14.2462 18.0001H13.0002V10.8161C13.5831 10.61 14.0881 10.2289 14.4461 9.7248C14.8041 9.22073 14.9976 8.61836 15.0002 8.0001C15.0002 7.73489 14.8948 7.48053 14.7073 7.293C14.5198 7.10546 14.2654 7.0001 14.0002 7.0001C13.735 7.0001 13.4806 7.10546 13.2931 7.293C13.1056 7.48053 13.0002 7.73489 13.0002 8.0001C13.0002 8.26532 12.8948 8.51967 12.7073 8.70721C12.5198 8.89474 12.2654 9.0001 12.0002 9.0001C11.735 9.0001 11.4806 8.89474 11.2931 8.70721C11.1056 8.51967 11.0002 8.26532 11.0002 8.0001C11.0002 7.73489 10.8948 7.48053 10.7073 7.293C10.5198 7.10546 10.2654 7.0001 10.0002 7.0001C9.73499 7.0001 9.48064 7.10546 9.2931 7.293C9.10556 7.48053 9.00021 7.73489 9.00021 8.0001C9.00277 8.61836 9.19629 9.22073 9.55429 9.7248C9.9123 10.2289 10.4173 10.61 11.0002 10.8161V18.0001H9.67821C9.2272 16.5093 8.38132 15.1683 7.23021 14.1191C6.25316 13.2087 5.55693 12.0378 5.22368 10.7446C4.89042 9.45138 4.93405 8.08982 5.34942 6.8206C5.76478 5.55137 6.53455 4.42745 7.56787 3.58147C8.6012 2.73548 9.85496 2.20274 11.1812 2.0461C11.4561 2.01541 11.7326 2.00005 12.0092 2.0001C13.7268 1.995 15.3849 2.62873 16.6612 3.7781C17.4009 4.4377 17.9919 5.24699 18.3952 6.15233C18.7984 7.05766 19.0045 8.03837 19 9.02942C18.9955 10.0205 18.7803 10.9993 18.3688 11.9009C17.9573 12.8025 17.3589 13.6063 16.6132 14.2591H16.6102Z" fill="white" fill-opacity="0.8"/>
</g>
<defs>
<clipPath id="clip0_139_215">
<rect width="24" height="24" fill="white"/>
</clipPath>
</defs>
</svg>
