<svg width="24" height="24" viewBox="0 0 24 24" fill="none" xmlns="http://www.w3.org/2000/svg">
<g clip-path="url(#clip0_139_58)">
<path d="M19.7831 12.079C19.6191 11.493 19.4341 10.873 19.2281 10.206C18.618 8.52425 18.2059 6.77715 18.0001 5.00003C18.0001 4.73481 18.1054 4.48046 18.293 4.29292C18.4805 4.10539 18.7349 4.00003 19.0001 4.00003C19.2653 4.00003 19.5197 4.10539 19.7072 4.29292C19.8947 4.48046 20.0001 4.73481 20.0001 5.00003C20.0001 5.26525 20.1054 5.5196 20.293 5.70714C20.4805 5.89467 20.7349 6.00003 21.0001 6.00003C21.2653 6.00003 21.5197 5.89467 21.7072 5.70714C21.8947 5.5196 22.0001 5.26525 22.0001 5.00003C22.0001 4.20438 21.684 3.44132 21.1214 2.87871C20.5588 2.3161 19.7957 2.00003 19.0001 2.00003C18.2044 2.00003 17.4414 2.3161 16.8788 2.87871C16.3162 3.44132 16.0001 4.20438 16.0001 5.00003C16.0249 5.76363 16.1318 6.52234 16.3191 7.26303L11.5191 11L5.97108 7.00003H9.00008C9.2653 7.00003 9.51965 6.89467 9.70719 6.70714C9.89473 6.5196 10.0001 6.26525 10.0001 6.00003C10.0001 5.73481 9.89473 5.48046 9.70719 5.29292C9.51965 5.10539 9.2653 5.00003 9.00008 5.00003H5.97108C5.55565 4.9999 5.15082 5.13118 4.81452 5.37508C4.47821 5.61897 4.22767 5.96299 4.09873 6.35791C3.96979 6.75283 3.96906 7.17841 4.09665 7.57376C4.22424 7.96912 4.47361 8.31399 4.80908 8.55903L9.88008 12.271L8.44208 13.39C7.54887 12.5491 6.37539 12.0694 5.14885 12.044C3.92231 12.0186 2.72995 12.4491 1.80265 13.2524C0.875343 14.0556 0.279053 15.1743 0.129228 16.3919C-0.0205966 17.6095 0.286703 18.8394 0.991628 19.8435C1.69655 20.8476 2.74896 21.5544 3.94508 21.827C5.1412 22.0997 6.39595 21.9188 7.46639 21.3195C8.53683 20.7201 9.3468 19.7449 9.7395 18.5827C10.1322 17.4204 10.0797 16.1538 9.59208 15.028L16.8811 9.35903C17.0221 9.83503 17.6081 11.743 17.7371 12.182C16.5418 12.4941 15.5046 13.2381 14.8259 14.2703C14.1472 15.3026 13.8752 16.5497 14.0624 17.7708C14.2496 18.9919 14.8827 20.1002 15.8394 20.8817C16.7962 21.6632 18.0086 22.0624 19.2425 22.0021C20.4764 21.9418 21.6441 21.4263 22.5201 20.5552C23.396 19.6841 23.9181 18.5193 23.9853 17.2858C24.0525 16.0523 23.6602 14.8376 22.884 13.8765C22.1079 12.9154 21.0031 12.2761 19.7831 12.082V12.079ZM5.00008 20C4.40674 20 3.82672 19.8241 3.33337 19.4944C2.84003 19.1648 2.45551 18.6963 2.22844 18.1481C2.00138 17.5999 1.94197 16.9967 2.05773 16.4148C2.17348 15.8328 2.45921 15.2983 2.87876 14.8787C3.29832 14.4592 3.83287 14.1734 4.41481 14.0577C4.99676 13.9419 5.59996 14.0013 6.14813 14.2284C6.69631 14.4555 7.16485 14.84 7.49449 15.3333C7.82414 15.8267 8.00008 16.4067 8.00008 17C8.00008 17.7957 7.68401 18.5587 7.1214 19.1214C6.55879 19.684 5.79573 20 5.00008 20ZM19.0001 20C18.4067 20 17.8267 19.8241 17.3334 19.4944C16.84 19.1648 16.4555 18.6963 16.2284 18.1481C16.0014 17.5999 15.942 16.9967 16.0577 16.4148C16.1735 15.8328 16.4592 15.2983 16.8788 14.8787C17.2983 14.4592 17.8329 14.1734 18.4148 14.0577C18.9968 13.9419 19.6 14.0013 20.1481 14.2284C20.6963 14.4555 21.1648 14.84 21.4945 15.3333C21.8241 15.8267 22.0001 16.4067 22.0001 17C22.0001 17.7957 21.684 18.5587 21.1214 19.1214C20.5588 19.684 19.7957 20 19.0001 20Z" fill="white" fill-opacity="0.8"/>
</g>
<defs>
<clipPath id="clip0_139_58">
<rect width="24" height="24" fill="white"/>
</clipPath>
</defs>
</svg>
