<svg width="20" height="24" viewBox="0 0 20 24" fill="none" xmlns="http://www.w3.org/2000/svg">
<path d="M14.8715 3.97356C14.6342 2.84977 14.0179 1.84167 13.1258 1.11824C12.2337 0.394802 11.12 0 9.97146 0C8.82289 0 7.70923 0.394802 6.81713 1.11824C5.92503 1.84167 5.3087 2.84977 5.07146 3.97356C4.14323 4.04705 3.24879 4.35474 2.4718 4.86786C1.69481 5.38098 1.06063 6.08278 0.628589 6.90761C0.196543 7.73244 -0.0192639 8.65337 0.00134965 9.58428C0.0219632 10.5152 0.278324 11.4257 0.746458 12.2306L6.99046 22.2866C7.30755 22.7904 7.74722 23.2057 8.26837 23.4934C8.78952 23.7812 9.37513 23.9322 9.97046 23.9322C10.5658 23.9322 11.1514 23.7812 11.6726 23.4934C12.1937 23.2057 12.6334 22.7904 12.9505 22.2866L19.2115 12.2066C19.6741 11.4012 19.9256 10.492 19.9424 9.56333C19.9593 8.63471 19.741 7.71692 19.3079 6.89531C18.8748 6.0737 18.2409 5.37498 17.4653 4.86414C16.6896 4.35331 15.7973 4.04695 14.8715 3.97356ZM17.9715 9.45356C17.9694 9.64582 17.9506 9.83754 17.9155 10.0266C15.7411 10.5339 13.5228 10.8299 11.2915 10.9106C9.30046 5.60056 17.5645 3.79556 17.9715 9.45356ZM9.97146 1.95356C10.6344 1.9561 11.2778 2.17816 11.8012 2.58504C12.3246 2.99193 12.6985 3.56072 12.8645 4.20256C11.695 4.56019 10.6774 5.29602 9.97146 6.29456C9.26548 5.29602 8.2479 4.56019 7.07846 4.20256C7.24441 3.56072 7.61829 2.99193 8.14169 2.58504C8.66508 2.17816 9.30852 1.9561 9.97146 1.95356ZM5.47146 5.95356C6.0559 5.9583 6.62994 6.10862 7.1417 6.39092C7.65345 6.67323 8.08679 7.07861 8.40253 7.57044C8.71828 8.06227 8.90647 8.62504 8.95011 9.20786C8.99374 9.79069 8.89145 10.3752 8.65246 10.9086C6.42193 10.8214 4.20437 10.5268 2.02846 10.0286C1.94508 9.52797 1.97157 9.01524 2.10607 8.52591C2.24057 8.03657 2.47988 7.58234 2.80741 7.19469C3.13493 6.80705 3.54284 6.49526 4.00285 6.28095C4.46286 6.06664 4.96398 5.95493 5.47146 5.95356ZM11.2495 21.2396C11.1086 21.4495 10.9183 21.6216 10.6952 21.7406C10.4722 21.8596 10.2233 21.9218 9.97046 21.9218C9.71765 21.9218 9.46873 21.8596 9.24567 21.7406C9.02261 21.6216 8.83227 21.4495 8.69146 21.2396L3.14146 12.2996C7.65599 13.1256 12.2829 13.1256 16.7975 12.2996L11.2495 21.2396Z" fill="white" fill-opacity="0.8"/>
</svg>
