<svg width="12" height="15" viewBox="0 0 12 15" fill="none" xmlns="http://www.w3.org/2000/svg">
<path d="M-2.44081e-05 9.15999V7.09999H6.77998C6.88664 7.09999 7.01664 7.09666 7.16998 7.08999C7.32998 7.07666 7.50664 7.04333 7.69998 6.98999C8.25331 6.83666 8.65331 6.55999 8.89998 6.15999C9.14664 5.75333 9.26998 5.27999 9.26998 4.73999C9.26998 4.41333 9.21998 4.08666 9.11998 3.75999C9.02664 3.42666 8.86331 3.13333 8.62998 2.87999C8.40331 2.62666 8.09331 2.44999 7.69998 2.34999C7.52664 2.30333 7.34998 2.27666 7.16998 2.26999C6.99664 2.26333 6.86664 2.25999 6.77998 2.25999H3.00998V-6.67572e-06H6.87998C6.95331 -6.67572e-06 7.09664 0.00332681 7.30998 0.00999379C7.52998 0.01666 7.77331 0.0399932 8.03998 0.0799935C8.86664 0.20666 9.54998 0.483326 10.09 0.909993C10.6366 1.33666 11.04 1.87666 11.3 2.52999C11.5666 3.17666 11.7 3.88999 11.7 4.66999C11.7 5.86333 11.3966 6.84999 10.79 7.62999C10.1833 8.40999 9.26664 8.89333 8.03998 9.07999C7.77331 9.11333 7.52998 9.13666 7.30998 9.14999C7.09664 9.15666 6.95331 9.15999 6.87998 9.15999H-2.44081e-05ZM-2.44081e-05 12.44V10.55H8.52998V12.44H-2.44081e-05ZM1.42998 14.4V-6.67572e-06H3.83998V14.4H1.42998Z" fill="white"/>
</svg>
